<mxfile host="app.diagrams.net" agent="Mozilla/5.0 (Windows NT 10.0; Win64; x64; rv:132.0) Gecko/20100101 Firefox/132.0" version="24.8.9">
  <diagram name="Page-1" id="ijglMOk0N4-1apNdVM1T">
    <mxGraphModel dx="2100" dy="1116" grid="1" gridSize="10" guides="1" tooltips="1" connect="1" arrows="1" fold="1" page="1" pageScale="1" pageWidth="827" pageHeight="1169" math="0" shadow="0">
      <root>
        <mxCell id="0" />
        <mxCell id="1" parent="0" />
        <mxCell id="dRbkGC8YhISf9HlQLKvz-1" value="E0" style="verticalLabelPosition=middle;verticalAlign=middle;html=1;shape=mxgraph.flowchart.on-page_reference;labelPosition=center;align=center;" vertex="1" parent="1">
          <mxGeometry x="314" y="100" width="60" height="60" as="geometry" />
        </mxCell>
        <mxCell id="dRbkGC8YhISf9HlQLKvz-2" value="" style="endArrow=none;html=1;rounded=0;entryX=0.5;entryY=1;entryDx=0;entryDy=0;entryPerimeter=0;exitX=0.5;exitY=0;exitDx=0;exitDy=0;exitPerimeter=0;" edge="1" parent="1" target="dRbkGC8YhISf9HlQLKvz-1">
          <mxGeometry width="50" height="50" relative="1" as="geometry">
            <mxPoint x="344" y="210" as="sourcePoint" />
            <mxPoint x="354" y="350" as="targetPoint" />
          </mxGeometry>
        </mxCell>
        <mxCell id="dRbkGC8YhISf9HlQLKvz-3" value="start" style="text;html=1;align=center;verticalAlign=middle;whiteSpace=wrap;rounded=0;" vertex="1" parent="1">
          <mxGeometry x="344" y="170" width="60" height="30" as="geometry" />
        </mxCell>
        <mxCell id="dRbkGC8YhISf9HlQLKvz-4" value="E1" style="verticalLabelPosition=middle;verticalAlign=middle;html=1;shape=mxgraph.flowchart.on-page_reference;labelPosition=center;align=center;" vertex="1" parent="1">
          <mxGeometry x="314" y="210" width="60" height="60" as="geometry" />
        </mxCell>
        <mxCell id="dRbkGC8YhISf9HlQLKvz-5" value="" style="endArrow=none;html=1;rounded=0;exitX=1;exitY=0.5;exitDx=0;exitDy=0;exitPerimeter=0;" edge="1" parent="1" source="dRbkGC8YhISf9HlQLKvz-4">
          <mxGeometry width="50" height="50" relative="1" as="geometry">
            <mxPoint x="430" y="180" as="sourcePoint" />
            <mxPoint x="450" y="240" as="targetPoint" />
          </mxGeometry>
        </mxCell>
        <mxCell id="dRbkGC8YhISf9HlQLKvz-6" value="Signal panneau de controle" style="rounded=0;whiteSpace=wrap;html=1;" vertex="1" parent="1">
          <mxGeometry x="450" y="217.5" width="90" height="45" as="geometry" />
        </mxCell>
        <mxCell id="dRbkGC8YhISf9HlQLKvz-7" value="N &amp;lt; N2" style="text;html=1;align=center;verticalAlign=middle;whiteSpace=wrap;rounded=0;" vertex="1" parent="1">
          <mxGeometry x="380" y="210" width="60" height="30" as="geometry" />
        </mxCell>
        <mxCell id="dRbkGC8YhISf9HlQLKvz-8" value="N &amp;gt; N2" style="text;html=1;align=center;verticalAlign=middle;whiteSpace=wrap;rounded=0;" vertex="1" parent="1">
          <mxGeometry x="344" y="300" width="60" height="30" as="geometry" />
        </mxCell>
        <mxCell id="dRbkGC8YhISf9HlQLKvz-9" value="" style="endArrow=none;html=1;rounded=0;entryX=0.5;entryY=1;entryDx=0;entryDy=0;entryPerimeter=0;" edge="1" parent="1" target="dRbkGC8YhISf9HlQLKvz-4">
          <mxGeometry width="50" height="50" relative="1" as="geometry">
            <mxPoint x="344" y="350" as="sourcePoint" />
            <mxPoint x="480" y="170" as="targetPoint" />
          </mxGeometry>
        </mxCell>
        <mxCell id="dRbkGC8YhISf9HlQLKvz-10" value="E2" style="verticalLabelPosition=middle;verticalAlign=middle;html=1;shape=mxgraph.flowchart.on-page_reference;labelPosition=center;align=center;" vertex="1" parent="1">
          <mxGeometry x="314" y="350" width="60" height="60" as="geometry" />
        </mxCell>
        <mxCell id="dRbkGC8YhISf9HlQLKvz-11" value="Envoyer alarme" style="text;html=1;align=center;verticalAlign=middle;whiteSpace=wrap;rounded=0;" vertex="1" parent="1">
          <mxGeometry x="380" y="365" width="60" height="30" as="geometry" />
        </mxCell>
        <mxCell id="dRbkGC8YhISf9HlQLKvz-12" value="" style="endArrow=none;html=1;rounded=0;entryX=0.5;entryY=1;entryDx=0;entryDy=0;entryPerimeter=0;exitX=0;exitY=0.5;exitDx=0;exitDy=0;exitPerimeter=0;" edge="1" parent="1" source="dRbkGC8YhISf9HlQLKvz-4" target="dRbkGC8YhISf9HlQLKvz-10">
          <mxGeometry width="50" height="50" relative="1" as="geometry">
            <mxPoint x="210" y="240" as="sourcePoint" />
            <mxPoint x="480" y="240" as="targetPoint" />
            <Array as="points">
              <mxPoint x="210" y="240" />
              <mxPoint x="210" y="460" />
              <mxPoint x="344" y="460" />
            </Array>
          </mxGeometry>
        </mxCell>
        <mxCell id="dRbkGC8YhISf9HlQLKvz-13" value="" style="curved=1;endArrow=classic;html=1;rounded=0;exitX=0.759;exitY=1.023;exitDx=0;exitDy=0;exitPerimeter=0;" edge="1" parent="1" source="dRbkGC8YhISf9HlQLKvz-4">
          <mxGeometry width="50" height="50" relative="1" as="geometry">
            <mxPoint x="430" y="290" as="sourcePoint" />
            <mxPoint x="371" y="250" as="targetPoint" />
            <Array as="points">
              <mxPoint x="370" y="290" />
              <mxPoint x="400" y="290" />
              <mxPoint x="420" y="280" />
              <mxPoint x="430" y="240" />
            </Array>
          </mxGeometry>
        </mxCell>
        <mxCell id="dRbkGC8YhISf9HlQLKvz-14" value="Mesure CO2" style="text;html=1;align=center;verticalAlign=middle;whiteSpace=wrap;rounded=0;" vertex="1" parent="1">
          <mxGeometry x="414" y="270" width="60" height="30" as="geometry" />
        </mxCell>
      </root>
    </mxGraphModel>
  </diagram>
</mxfile>
